<svg width="92" height="23" fill="none" xmlns="http://www.w3.org/2000/svg"><path d="M.419 22h14.37v-2.61H3.419V1h-3v21zm29.011.24c6.39 0 11.13-4.56 11.13-10.74C40.56 5.32 35.82.76 29.43.76c-6.45 0-11.19 4.59-11.19 10.74s4.74 10.74 11.19 10.74zm0-2.67c-4.71 0-8.19-3.42-8.19-8.07s3.48-8.07 8.19-8.07c4.65 0 8.13 3.42 8.13 8.07s-3.48 8.07-8.13 8.07zm27.206 2.67c3.27 0 6.09-1.14 8.01-3.3l-1.95-1.89c-1.62 1.71-3.6 2.52-5.91 2.52-4.74 0-8.25-3.42-8.25-8.07s3.51-8.07 8.25-8.07c2.31 0 4.29.78 5.91 2.49l1.95-1.89c-1.92-2.16-4.74-3.27-7.98-3.27-6.39 0-11.13 4.53-11.13 10.74s4.74 10.74 11.1 10.74zm23.43 0c6.39 0 11.13-4.56 11.13-10.74 0-6.18-4.74-10.74-11.13-10.74-6.45 0-11.19 4.59-11.19 10.74s4.74 10.74 11.19 10.74zm0-2.67c-4.71 0-8.19-3.42-8.19-8.07s3.48-8.07 8.19-8.07c4.65 0 8.13 3.42 8.13 8.07s-3.48 8.07-8.13 8.07z" fill="#fff"/></svg>