<svg width="43" height="43" fill="none" xmlns="http://www.w3.org/2000/svg"><ellipse cx="21.5" cy="21.5" rx="21.489" ry="21.5" fill="#fff"/><path d="M30.894 25.934a1.327 1.327 0 00-.068-.125c-.347-.603-1.01-1.342-1.989-2.219l-.02-.02-.01-.01-.011-.01h-.01c-.445-.408-.726-.683-.844-.823-.216-.268-.264-.539-.146-.813.083-.208.396-.646.937-1.315.285-.355.51-.64.677-.853 1.2-1.54 1.722-2.523 1.562-2.952l-.062-.1c-.042-.06-.15-.115-.323-.165-.174-.05-.396-.059-.666-.026l-3 .02a.403.403 0 00-.208.006l-.135.03-.052.025-.042.03a.456.456 0 00-.114.105.681.681 0 00-.104.176c-.327.81-.698 1.563-1.114 2.259-.257.415-.493.774-.709 1.079a5.212 5.212 0 01-.541.672 3.73 3.73 0 01-.396.346c-.118.088-.208.124-.27.111a8.543 8.543 0 01-.178-.04.678.678 0 01-.234-.246 1.074 1.074 0 01-.12-.392 4.167 4.167 0 01-.036-.406 8.09 8.09 0 01.005-.482c.007-.208.01-.348.01-.422 0-.254.006-.53.016-.828l.026-.707c.007-.174.01-.359.01-.553a2.24 2.24 0 00-.036-.456 1.521 1.521 0 00-.109-.322.547.547 0 00-.213-.24 1.23 1.23 0 00-.35-.136c-.367-.08-.836-.124-1.405-.13-1.291-.014-2.121.066-2.489.24a1.398 1.398 0 00-.396.302c-.124.147-.142.227-.052.24.417.06.712.204.885.432l.063.12c.049.088.097.242.146.462.048.221.08.465.093.733.035.489.035.907 0 1.255-.034.348-.067.619-.099.813a1.584 1.584 0 01-.14.472c-.063.12-.104.194-.125.22a.177.177 0 01-.052.05.805.805 0 01-.281.05c-.098 0-.216-.046-.354-.14a2.468 2.468 0 01-.433-.386 5.18 5.18 0 01-.505-.688 11.847 11.847 0 01-.583-1.044l-.166-.291c-.104-.187-.247-.46-.427-.818-.18-.358-.34-.704-.48-1.04a.664.664 0 00-.249-.32l-.052-.03a.722.722 0 00-.167-.086 1.137 1.137 0 00-.24-.065l-2.852.02c-.292 0-.49.064-.594.19l-.042.061a.315.315 0 00-.031.16c0 .074.02.165.063.272.416.943.869 1.853 1.358 2.73.49.877.915 1.583 1.276 2.118.36.535.729 1.04 1.104 1.516.375.475.623.78.744.913.122.134.217.234.287.301l.26.241c.167.16.411.353.734.577.323.225.68.445 1.073.663.392.217.848.395 1.37.532.52.137 1.027.192 1.52.166h1.197c.243-.02.427-.094.552-.221l.041-.05a.649.649 0 00.078-.186.984.984 0 00.037-.276 3.195 3.195 0 01.067-.778c.052-.23.111-.405.178-.522a1.284 1.284 0 01.4-.441.697.697 0 01.084-.036c.166-.053.362-.001.588.156.226.157.438.352.636.582.197.231.435.49.713.778.277.288.52.502.729.643l.208.12c.139.08.32.154.541.221.222.067.417.084.584.05l2.665-.04c.264 0 .469-.042.614-.125.146-.084.233-.176.26-.276.029-.1.03-.215.006-.342a1.227 1.227 0 00-.073-.266z" fill="#000"/></svg>